<svg width="149" height="32" viewBox="0 0 149 32" fill="none" xmlns="http://www.w3.org/2000/svg">
<path fill-rule="evenodd" clip-rule="evenodd" d="M5.21166 19.0388C5.35114 19.4536 5.12798 19.9029 4.71323 20.0423C3.37021 20.494 2.65646 21.6214 2.27468 22.7679C2.12308 23.2231 2.03149 23.6614 1.97645 24.0238C2.33884 23.9687 2.7771 23.8771 3.23235 23.7255C4.37882 23.3438 5.50624 22.63 5.95787 21.287C6.09735 20.8722 6.54664 20.6491 6.9614 20.7886C7.37615 20.928 7.59931 21.3773 7.45984 21.7921C6.78243 23.8065 5.10706 24.7714 3.73301 25.229C3.03888 25.4601 2.38905 25.5742 1.91475 25.6311C1.67645 25.6597 1.47943 25.6742 1.33947 25.6816C1.26942 25.6853 1.21343 25.6872 1.17347 25.6882C1.15348 25.6887 1.13748 25.6889 1.1257 25.6891L1.11124 25.6892L1.10643 25.6892L1.10465 25.6892L1.10391 25.6892C1.10359 25.6892 1.10328 25.6892 1.10328 24.8969C0.310974 24.8969 0.310974 24.8966 0.310974 24.8963L0.310975 24.8956L0.310979 24.8938L0.311001 24.889L0.311134 24.8745C0.311276 24.8627 0.311542 24.8467 0.312037 24.8268C0.313028 24.7868 0.31494 24.7308 0.318626 24.6607C0.325992 24.5208 0.340487 24.3238 0.369073 24.0855C0.42597 23.6112 0.540085 22.9613 0.771234 22.2672C1.2288 20.8932 2.19376 19.2178 4.20814 18.5404C4.6229 18.4009 5.07219 18.6241 5.21166 19.0388ZM1.10328 24.8969H0.310974C0.310974 25.3345 0.665702 25.6892 1.10328 25.6892V24.8969Z" fill="#8381D9"/>
<path fill-rule="evenodd" clip-rule="evenodd" d="M18.3648 7.63532C17.4451 7.50269 15.1815 7.45272 12.8647 9.76944L6.70027 15.9339L10.0662 19.2998L16.2307 13.1354C18.5474 10.8187 18.4974 8.55497 18.3648 7.63532ZM18.5946 6.06745C17.3298 5.88433 14.5104 5.88275 11.7442 8.64895L5.01954 15.3737C4.87095 15.5222 4.78748 15.7238 4.78748 15.9339C4.78748 16.144 4.87095 16.3456 5.01954 16.4941L9.50598 20.9806C9.81539 21.29 10.3171 21.29 10.6265 20.9806L17.3512 14.2559C20.1174 11.4897 20.1158 8.67034 19.9327 7.40556C19.8863 7.06706 19.7305 6.75297 19.4888 6.51131C19.2472 6.26965 18.9331 6.11379 18.5946 6.06745Z" fill="#8381D9"/>
<path fill-rule="evenodd" clip-rule="evenodd" d="M15.6718 14.0222C16.1094 14.0222 16.4641 14.3769 16.4641 14.8145V21.2124L16.464 21.2237C16.4581 21.6399 16.2887 22.0369 15.9925 22.3291L12.7951 25.5364C12.5921 25.7392 12.3379 25.883 12.0596 25.9526C11.7812 26.0222 11.4892 26.0149 11.2147 25.9315C10.9402 25.8482 10.6935 25.6918 10.5009 25.4792C10.3084 25.2668 10.1772 25.0061 10.1212 24.725C10.1211 24.7247 10.1212 24.7252 10.1212 24.725L9.28935 20.5758C9.20334 20.1468 9.48142 19.7293 9.91046 19.6432C10.3395 19.5572 10.757 19.8353 10.8431 20.2644L11.6752 24.4153L14.8795 21.2011V14.8145C14.8795 14.3769 15.2342 14.0222 15.6718 14.0222Z" fill="#8381D9"/>
<path fill-rule="evenodd" clip-rule="evenodd" d="M4.77622 9.53591L4.7875 9.53583H11.1854C11.623 9.53583 11.9777 9.89056 11.9777 10.3281C11.9777 10.7657 11.623 11.1204 11.1854 11.1204H4.79871L4.79231 11.127L4.79227 11.1269L1.58461 14.3247L1.58584 14.3249L5.73555 15.1569C6.16459 15.2429 6.44268 15.6604 6.35666 16.0894C6.27065 16.5185 5.85311 16.7966 5.42407 16.7106L1.27559 15.8789C1.27535 15.8788 1.27512 15.8788 1.27488 15.8787C0.993771 15.8227 0.733119 15.6915 0.52069 15.499C0.308081 15.3064 0.151753 15.0597 0.0683836 14.7852C-0.0149853 14.5107 -0.0222675 14.2187 0.0473153 13.9404C0.116898 13.662 0.260734 13.4078 0.463478 13.2048L0.464666 13.2037L0.464667 13.2037L3.67079 10.0074C3.96301 9.71125 4.36005 9.54184 4.77622 9.53591Z" fill="#8381D9"/>
<path d="M29.7569 23V8.9H35.8769C37.4236 8.9 38.6169 9.27333 39.4569 10.02C40.2969 10.7533 40.7169 11.7867 40.7169 13.12C40.7169 14.1733 40.4436 15.0467 39.8969 15.74C39.3503 16.42 38.5636 16.88 37.5369 17.12C38.2169 17.3333 38.7769 17.8467 39.2169 18.66L41.5769 23H38.7569L36.3169 18.5C36.0769 18.06 35.7903 17.76 35.4569 17.6C35.1369 17.44 34.7236 17.36 34.2169 17.36H32.3169V23H29.7569ZM32.3169 15.46H35.4369C37.3036 15.46 38.2369 14.7 38.2369 13.18C38.2369 11.6733 37.3036 10.92 35.4369 10.92H32.3169V15.46ZM47.434 23.2C46.4206 23.2 45.5406 22.9933 44.794 22.58C44.0473 22.1667 43.4673 21.58 43.054 20.82C42.6406 20.0467 42.434 19.14 42.434 18.1C42.434 17.06 42.6406 16.16 43.054 15.4C43.4673 14.64 44.0473 14.0533 44.794 13.64C45.5406 13.2267 46.4206 13.02 47.434 13.02C48.4473 13.02 49.3273 13.2267 50.074 13.64C50.8206 14.0533 51.4006 14.64 51.814 15.4C52.2273 16.16 52.434 17.06 52.434 18.1C52.434 19.14 52.2273 20.0467 51.814 20.82C51.4006 21.58 50.8206 22.1667 50.074 22.58C49.3273 22.9933 48.4473 23.2 47.434 23.2ZM47.434 21.3C48.1806 21.3 48.7806 21.0333 49.234 20.5C49.6873 19.9533 49.914 19.1533 49.914 18.1C49.914 17.0333 49.6873 16.24 49.234 15.72C48.7806 15.1867 48.1806 14.92 47.434 14.92C46.6873 14.92 46.0873 15.1867 45.634 15.72C45.1806 16.24 44.954 17.0333 44.954 18.1C44.954 19.1533 45.1806 19.9533 45.634 20.5C46.0873 21.0333 46.6873 21.3 47.434 21.3ZM59.0174 23.2C57.9907 23.2 57.0974 22.9933 56.3374 22.58C55.5774 22.1533 54.9907 21.5533 54.5774 20.78C54.1641 20.0067 53.9574 19.1 53.9574 18.06C53.9574 17.02 54.1641 16.1267 54.5774 15.38C54.9907 14.62 55.5774 14.04 56.3374 13.64C57.0974 13.2267 57.9907 13.02 59.0174 13.02C59.6441 13.02 60.2641 13.12 60.8774 13.32C61.4907 13.52 61.9974 13.8 62.3974 14.16L61.6574 15.9C61.3107 15.5933 60.9174 15.36 60.4774 15.2C60.0507 15.04 59.6374 14.96 59.2374 14.96C58.3707 14.96 57.6974 15.2333 57.2174 15.78C56.7507 16.3133 56.5174 17.08 56.5174 18.08C56.5174 19.0667 56.7507 19.8467 57.2174 20.42C57.6974 20.98 58.3707 21.26 59.2374 21.26C59.6241 21.26 60.0374 21.18 60.4774 21.02C60.9174 20.86 61.3107 20.62 61.6574 20.3L62.3974 22.06C61.9974 22.4067 61.4841 22.6867 60.8574 22.9C60.2441 23.1 59.6307 23.2 59.0174 23.2ZM63.931 23V8.9H66.431V17.38H66.471L70.411 13.22H73.431L68.991 17.9L73.711 23H70.651L66.471 18.64H66.431V23H63.931ZM79.2783 23.2C78.1717 23.2 77.2183 22.9933 76.4183 22.58C75.6183 22.1667 74.9983 21.58 74.5583 20.82C74.1317 20.06 73.9183 19.16 73.9183 18.12C73.9183 17.1067 74.125 16.22 74.5383 15.46C74.965 14.7 75.545 14.1067 76.2783 13.68C77.025 13.24 77.8717 13.02 78.8183 13.02C80.205 13.02 81.2983 13.46 82.0983 14.34C82.9117 15.22 83.3183 16.42 83.3183 17.94V18.68H76.3183C76.505 20.4267 77.505 21.3 79.3183 21.3C79.865 21.3 80.4117 21.22 80.9583 21.06C81.505 20.8867 82.005 20.62 82.4583 20.26L83.1583 21.94C82.6917 22.3267 82.105 22.6333 81.3983 22.86C80.6917 23.0867 79.985 23.2 79.2783 23.2ZM78.9183 14.72C78.185 14.72 77.5917 14.9467 77.1383 15.4C76.685 15.8533 76.4117 16.4667 76.3183 17.24H81.2383C81.185 16.4267 80.9583 15.8067 80.5583 15.38C80.1717 14.94 79.625 14.72 78.9183 14.72ZM89.7391 23.2C87.1524 23.2 85.8591 21.92 85.8591 19.36V15.1H83.9791V13.22H85.8591V10.3H88.3591V13.22H91.3191V15.1H88.3591V19.22C88.3591 19.86 88.4991 20.34 88.7791 20.66C89.0591 20.98 89.5124 21.14 90.1391 21.14C90.3258 21.14 90.5191 21.12 90.7191 21.08C90.9191 21.0267 91.1258 20.9733 91.3391 20.92L91.7191 22.76C91.4791 22.8933 91.1724 23 90.7991 23.08C90.4391 23.16 90.0858 23.2 89.7391 23.2ZM93.1749 23V8.9H99.3349C100.815 8.9 101.962 9.22667 102.775 9.88C103.588 10.52 103.995 11.4133 103.995 12.56C103.995 13.32 103.802 13.9733 103.415 14.52C103.028 15.0667 102.495 15.4667 101.815 15.72C102.615 15.9467 103.235 16.3467 103.675 16.92C104.128 17.48 104.355 18.1933 104.355 19.06C104.355 20.3133 103.928 21.2867 103.075 21.98C102.235 22.66 101.062 23 99.5549 23H93.1749ZM95.6349 14.88H98.8949C100.642 14.88 101.515 14.2067 101.515 12.86C101.515 11.5133 100.642 10.84 98.8949 10.84H95.6349V14.88ZM95.6349 21.06H99.2349C100.995 21.06 101.875 20.3533 101.875 18.94C101.875 17.5267 100.995 16.82 99.2349 16.82H95.6349V21.06ZM111.164 23.2C110.151 23.2 109.271 22.9933 108.524 22.58C107.778 22.1667 107.198 21.58 106.784 20.82C106.371 20.0467 106.164 19.14 106.164 18.1C106.164 17.06 106.371 16.16 106.784 15.4C107.198 14.64 107.778 14.0533 108.524 13.64C109.271 13.2267 110.151 13.02 111.164 13.02C112.178 13.02 113.058 13.2267 113.804 13.64C114.551 14.0533 115.131 14.64 115.544 15.4C115.958 16.16 116.164 17.06 116.164 18.1C116.164 19.14 115.958 20.0467 115.544 20.82C115.131 21.58 114.551 22.1667 113.804 22.58C113.058 22.9933 112.178 23.2 111.164 23.2ZM111.164 21.3C111.911 21.3 112.511 21.0333 112.964 20.5C113.418 19.9533 113.644 19.1533 113.644 18.1C113.644 17.0333 113.418 16.24 112.964 15.72C112.511 15.1867 111.911 14.92 111.164 14.92C110.418 14.92 109.818 15.1867 109.364 15.72C108.911 16.24 108.684 17.0333 108.684 18.1C108.684 19.1533 108.911 19.9533 109.364 20.5C109.818 21.0333 110.418 21.3 111.164 21.3ZM122.688 23.2C121.675 23.2 120.795 22.9933 120.048 22.58C119.301 22.1667 118.721 21.58 118.308 20.82C117.895 20.0467 117.688 19.14 117.688 18.1C117.688 17.06 117.895 16.16 118.308 15.4C118.721 14.64 119.301 14.0533 120.048 13.64C120.795 13.2267 121.675 13.02 122.688 13.02C123.701 13.02 124.581 13.2267 125.328 13.64C126.075 14.0533 126.655 14.64 127.068 15.4C127.481 16.16 127.688 17.06 127.688 18.1C127.688 19.14 127.481 20.0467 127.068 20.82C126.655 21.58 126.075 22.1667 125.328 22.58C124.581 22.9933 123.701 23.2 122.688 23.2ZM122.688 21.3C123.435 21.3 124.035 21.0333 124.488 20.5C124.941 19.9533 125.168 19.1533 125.168 18.1C125.168 17.0333 124.941 16.24 124.488 15.72C124.035 15.1867 123.435 14.92 122.688 14.92C121.941 14.92 121.341 15.1867 120.888 15.72C120.435 16.24 120.208 17.0333 120.208 18.1C120.208 19.1533 120.435 19.9533 120.888 20.5C121.341 21.0333 121.941 21.3 122.688 21.3ZM129.751 23V8.9H132.251V17.38H132.291L136.231 13.22H139.251L134.811 17.9L139.531 23H136.471L132.291 18.64H132.251V23H129.751ZM143.898 23.2C143.071 23.2 142.298 23.1 141.578 22.9C140.858 22.7 140.258 22.4133 139.778 22.04L140.418 20.4C140.911 20.7333 141.464 20.9933 142.078 21.18C142.691 21.3533 143.304 21.44 143.918 21.44C144.558 21.44 145.031 21.3333 145.338 21.12C145.658 20.8933 145.818 20.6 145.818 20.24C145.818 19.68 145.404 19.32 144.578 19.16L142.578 18.78C140.884 18.46 140.038 17.58 140.038 16.14C140.038 15.5 140.211 14.9467 140.558 14.48C140.918 14.0133 141.411 13.6533 142.038 13.4C142.664 13.1467 143.384 13.02 144.198 13.02C144.891 13.02 145.558 13.12 146.198 13.32C146.838 13.5067 147.384 13.7933 147.838 14.18L147.158 15.82C146.771 15.5 146.304 15.2467 145.758 15.06C145.224 14.8733 144.711 14.78 144.218 14.78C143.564 14.78 143.078 14.8933 142.758 15.12C142.451 15.3467 142.298 15.6467 142.298 16.02C142.298 16.6067 142.678 16.9667 143.438 17.1L145.438 17.48C146.304 17.64 146.958 17.9333 147.398 18.36C147.851 18.7867 148.078 19.36 148.078 20.08C148.078 21.0533 147.698 21.82 146.938 22.38C146.178 22.9267 145.164 23.2 143.898 23.2Z" fill="url(#paint0_linear_553_4342)"/>
<defs>
<linearGradient id="paint0_linear_553_4342" x1="28.0001" y1="16.3137" x2="149" y2="16.3137" gradientUnits="userSpaceOnUse">
<stop stop-color="#7FD1CC"/>
<stop offset="1" stop-color="#9694F5"/>
</linearGradient>
</defs>
</svg>
